<?xml version="1.0"?>
<!-- Generated by SVGo and Plotinum VG -->
<svg width="418.4pt" height="214pt" viewBox="0 0 418.4 214"
	xmlns="http://www.w3.org/2000/svg"
	xmlns:xlink="http://www.w3.org/1999/xlink">
<g transform="scale(1, -1) translate(0, -214)">
<path d="M19.2,12L399.2,12L399.2,202L19.2,202Z" style="fill:#FFFFFF" />
<text x="186.54" y="-190.45" transform="scale(1, -1)"
	style="font-family:Times;font-weight:normal;font-style:normal;font-size:12px">And, zipf</text>
<text x="88.019" y="-12.186" transform="scale(1, -1)"
	style="font-family:Times;font-weight:normal;font-style:normal;font-size:10px">v1</text>
<text x="233.61" y="-12.186" transform="scale(1, -1)"
	style="font-family:Times;font-weight:normal;font-style:normal;font-size:10px">v2</text>
<text x="379.2" y="-12.186" transform="scale(1, -1)"
	style="font-family:Times;font-weight:normal;font-style:normal;font-size:10px">v3</text>
<g transform="rotate(90)">
<text x="79.374" y="30.755" transform="scale(1, -1)"
	style="font-family:Times;font-weight:normal;font-style:normal;font-size:12px">time per op</text>
</g>
<text x="45.378" y="-22.093" transform="scale(1, -1)"
	style="font-family:Times;font-weight:normal;font-style:normal;font-size:10px">0 ns</text>
<text x="34.616" y="-86.975" transform="scale(1, -1)"
	style="font-family:Times;font-weight:normal;font-style:normal;font-size:10px">300 µs</text>
<text x="34.616" y="-151.86" transform="scale(1, -1)"
	style="font-family:Times;font-weight:normal;font-style:normal;font-size:10px">600 µs</text>
<path d="M64.269,26.814L72.269,26.814" style="fill:none;stroke:#000000;stroke-width:0.5" />
<path d="M64.269,91.697L72.269,91.697" style="fill:none;stroke:#000000;stroke-width:0.5" />
<path d="M64.269,156.58L72.269,156.58" style="fill:none;stroke:#000000;stroke-width:0.5" />
<path d="M68.269,48.442L72.269,48.442" style="fill:none;stroke:#000000;stroke-width:0.5" />
<path d="M68.269,70.069L72.269,70.069" style="fill:none;stroke:#000000;stroke-width:0.5" />
<path d="M68.269,113.32L72.269,113.32" style="fill:none;stroke:#000000;stroke-width:0.5" />
<path d="M68.269,134.95L72.269,134.95" style="fill:none;stroke:#000000;stroke-width:0.5" />
<path d="M68.269,178.21L72.269,178.21" style="fill:none;stroke:#000000;stroke-width:0.5" />
<path d="M72.269,26.814L72.269,186.58" style="fill:none;stroke:#000000;stroke-width:0.5" />
<path d="M78.019,26.814L78.019,186.58L108.02,186.58L108.02,26.814Z" style="fill:#F15A60" />
<path d="M223.61,26.814L223.61,26.814L253.61,26.814L253.61,26.814Z" style="fill:#F15A60" />
<path d="M369.2,26.814L369.2,26.814L399.2,26.814L399.2,26.814Z" style="fill:#F15A60" />
<path d="M78.019,26.814L78.019,26.814L108.02,26.814L108.02,26.814Z" style="fill:#7AC36A" />
<path d="M223.61,26.814L223.61,178.09L253.61,178.09L253.61,26.814Z" style="fill:#7AC36A" />
<path d="M369.2,26.814L369.2,26.814L399.2,26.814L399.2,26.814Z" style="fill:#7AC36A" />
<path d="M78.019,26.814L78.019,26.814L108.02,26.814L108.02,26.814Z" style="fill:#5A9BD4" />
<path d="M223.61,26.814L223.61,26.814L253.61,26.814L253.61,26.814Z" style="fill:#5A9BD4" />
<path d="M369.2,26.814L369.2,183.01L399.2,183.01L399.2,26.814Z" style="fill:#5A9BD4" />
</g>
</svg>
