<?xml version="1.0"?>
<!-- Generated by SVGo and Plotinum VG -->
<svg width="388.4pt" height="199pt" viewBox="0 0 388.4 199"
	xmlns="http://www.w3.org/2000/svg"
	xmlns:xlink="http://www.w3.org/1999/xlink">
<g transform="scale(1, -1) translate(0, -199)">
<path d="M19.2,12L369.2,12L369.2,187L19.2,187Z" style="fill:#FFFFFF" />
<text x="165.87" y="-175.45" transform="scale(1, -1)"
	style="font-family:Times;font-weight:normal;font-style:normal;font-size:12px">And, sparse</text>
<text x="80.036" y="-12.186" transform="scale(1, -1)"
	style="font-family:Times;font-weight:normal;font-style:normal;font-size:10px">off</text>
<text x="349.2" y="-12.186" transform="scale(1, -1)"
	style="font-family:Times;font-weight:normal;font-style:normal;font-size:10px">on</text>
<g transform="rotate(90)">
<text x="71.874" y="30.755" transform="scale(1, -1)"
	style="font-family:Times;font-weight:normal;font-style:normal;font-size:12px">time per op</text>
</g>
<text x="37.394" y="-22.093" transform="scale(1, -1)"
	style="font-family:Times;font-weight:normal;font-style:normal;font-size:10px">0 ns</text>
<text x="34.616" y="-82.555" transform="scale(1, -1)"
	style="font-family:Times;font-weight:normal;font-style:normal;font-size:10px">2 ms</text>
<text x="34.616" y="-143.02" transform="scale(1, -1)"
	style="font-family:Times;font-weight:normal;font-style:normal;font-size:10px">4 ms</text>
<path d="M56.286,26.814L64.286,26.814" style="fill:none;stroke:#000000;stroke-width:0.5" />
<path d="M56.286,87.277L64.286,87.277" style="fill:none;stroke:#000000;stroke-width:0.5" />
<path d="M56.286,147.74L64.286,147.74" style="fill:none;stroke:#000000;stroke-width:0.5" />
<path d="M60.286,57.046L64.286,57.046" style="fill:none;stroke:#000000;stroke-width:0.5" />
<path d="M60.286,117.51L64.286,117.51" style="fill:none;stroke:#000000;stroke-width:0.5" />
<path d="M64.286,26.814L64.286,171.58" style="fill:none;stroke:#000000;stroke-width:0.5" />
<path d="M70.776,26.814L70.776,171.58L100.78,171.58L100.78,26.814Z" style="fill:#F15A60" />
<path d="M339.2,26.814L339.2,26.814L369.2,26.814L369.2,26.814Z" style="fill:#F15A60" />
<path d="M70.776,26.814L70.776,26.814L100.78,26.814L100.78,26.814Z" style="fill:#7AC36A" />
<path d="M339.2,26.814L339.2,157.93L369.2,157.93L369.2,26.814Z" style="fill:#7AC36A" />
</g>
</svg>
