<?xml version="1.0"?>
<!-- Generated by SVGo and Plotinum VG -->
<svg width="418.4pt" height="214pt" viewBox="0 0 418.4 214"
	xmlns="http://www.w3.org/2000/svg"
	xmlns:xlink="http://www.w3.org/1999/xlink">
<g transform="scale(1, -1) translate(0, -214)">
<path d="M19.2,12L399.2,12L399.2,202L19.2,202Z" style="fill:#FFFFFF" />
<text x="186.54" y="-190.45" transform="scale(1, -1)"
	style="font-family:Times;font-weight:normal;font-style:normal;font-size:12px">And, zipf</text>
<text x="88.019" y="-12.186" transform="scale(1, -1)"
	style="font-family:Times;font-weight:normal;font-style:normal;font-size:10px">v1</text>
<text x="233.61" y="-12.186" transform="scale(1, -1)"
	style="font-family:Times;font-weight:normal;font-style:normal;font-size:10px">v2</text>
<text x="379.2" y="-12.186" transform="scale(1, -1)"
	style="font-family:Times;font-weight:normal;font-style:normal;font-size:10px">v3</text>
<g transform="rotate(90)">
<text x="79.374" y="30.755" transform="scale(1, -1)"
	style="font-family:Times;font-weight:normal;font-style:normal;font-size:12px">time per op</text>
</g>
<text x="45.378" y="-22.093" transform="scale(1, -1)"
	style="font-family:Times;font-weight:normal;font-style:normal;font-size:10px">0 ns</text>
<text x="34.616" y="-72.904" transform="scale(1, -1)"
	style="font-family:Times;font-weight:normal;font-style:normal;font-size:10px">250 µs</text>
<text x="34.616" y="-123.72" transform="scale(1, -1)"
	style="font-family:Times;font-weight:normal;font-style:normal;font-size:10px">500 µs</text>
<text x="34.616" y="-174.53" transform="scale(1, -1)"
	style="font-family:Times;font-weight:normal;font-style:normal;font-size:10px">750 µs</text>
<path d="M64.269,26.814L72.269,26.814" style="fill:none;stroke:#000000;stroke-width:0.5" />
<path d="M64.269,77.626L72.269,77.626" style="fill:none;stroke:#000000;stroke-width:0.5" />
<path d="M64.269,128.44L72.269,128.44" style="fill:none;stroke:#000000;stroke-width:0.5" />
<path d="M64.269,179.25L72.269,179.25" style="fill:none;stroke:#000000;stroke-width:0.5" />
<path d="M68.269,36.977L72.269,36.977" style="fill:none;stroke:#000000;stroke-width:0.5" />
<path d="M68.269,47.139L72.269,47.139" style="fill:none;stroke:#000000;stroke-width:0.5" />
<path d="M68.269,57.301L72.269,57.301" style="fill:none;stroke:#000000;stroke-width:0.5" />
<path d="M68.269,67.464L72.269,67.464" style="fill:none;stroke:#000000;stroke-width:0.5" />
<path d="M68.269,87.788L72.269,87.788" style="fill:none;stroke:#000000;stroke-width:0.5" />
<path d="M68.269,97.95L72.269,97.95" style="fill:none;stroke:#000000;stroke-width:0.5" />
<path d="M68.269,108.11L72.269,108.11" style="fill:none;stroke:#000000;stroke-width:0.5" />
<path d="M68.269,118.28L72.269,118.28" style="fill:none;stroke:#000000;stroke-width:0.5" />
<path d="M68.269,138.6L72.269,138.6" style="fill:none;stroke:#000000;stroke-width:0.5" />
<path d="M68.269,148.76L72.269,148.76" style="fill:none;stroke:#000000;stroke-width:0.5" />
<path d="M68.269,158.92L72.269,158.92" style="fill:none;stroke:#000000;stroke-width:0.5" />
<path d="M68.269,169.09L72.269,169.09" style="fill:none;stroke:#000000;stroke-width:0.5" />
<path d="M72.269,26.814L72.269,186.58" style="fill:none;stroke:#000000;stroke-width:0.5" />
<path d="M78.019,26.814L78.019,186.58L108.02,186.58L108.02,26.814Z" style="fill:#F15A60" />
<path d="M223.61,26.814L223.61,185.11L253.61,185.11L253.61,26.814Z" style="fill:#F15A60" />
<path d="M369.2,26.814L369.2,171.51L399.2,171.51L399.2,26.814Z" style="fill:#F15A60" />
</g>
</svg>
