<?xml version="1.0"?>
<!-- Generated by SVGo and Plotinum VG -->
<svg width="388.4pt" height="199pt" viewBox="0 0 388.4 199"
	xmlns="http://www.w3.org/2000/svg"
	xmlns:xlink="http://www.w3.org/1999/xlink">
<g transform="scale(1, -1) translate(0, -199)">
<path d="M19.2,12L369.2,12L369.2,187L19.2,187Z" style="fill:#FFFFFF" />
<text x="168.54" y="-175.45" transform="scale(1, -1)"
	style="font-family:Times;font-weight:normal;font-style:normal;font-size:12px">Build, zipf</text>
<text x="85.036" y="-12.186" transform="scale(1, -1)"
	style="font-family:Times;font-weight:normal;font-style:normal;font-size:10px">off</text>
<text x="349.2" y="-12.186" transform="scale(1, -1)"
	style="font-family:Times;font-weight:normal;font-style:normal;font-size:10px">on</text>
<g transform="rotate(90)">
<text x="71.874" y="30.755" transform="scale(1, -1)"
	style="font-family:Times;font-weight:normal;font-style:normal;font-size:12px">time per op</text>
</g>
<text x="42.394" y="-22.093" transform="scale(1, -1)"
	style="font-family:Times;font-weight:normal;font-style:normal;font-size:10px">0 ns</text>
<text x="39.616" y="-83.319" transform="scale(1, -1)"
	style="font-family:Times;font-weight:normal;font-style:normal;font-size:10px">8 ms</text>
<text x="34.616" y="-144.55" transform="scale(1, -1)"
	style="font-family:Times;font-weight:normal;font-style:normal;font-size:10px">16 ms</text>
<path d="M61.286,26.814L69.286,26.814" style="fill:none;stroke:#000000;stroke-width:0.5" />
<path d="M61.286,88.041L69.286,88.041" style="fill:none;stroke:#000000;stroke-width:0.5" />
<path d="M61.286,149.27L69.286,149.27" style="fill:none;stroke:#000000;stroke-width:0.5" />
<path d="M65.286,57.428L69.286,57.428" style="fill:none;stroke:#000000;stroke-width:0.5" />
<path d="M65.286,118.65L69.286,118.65" style="fill:none;stroke:#000000;stroke-width:0.5" />
<path d="M69.286,26.814L69.286,171.58" style="fill:none;stroke:#000000;stroke-width:0.5" />
<path d="M75.776,26.814L75.776,171.58L105.78,171.58L105.78,26.814Z" style="fill:#F15A60" />
<path d="M339.2,26.814L339.2,26.814L369.2,26.814L369.2,26.814Z" style="fill:#F15A60" />
<path d="M75.776,26.814L75.776,26.814L105.78,26.814L105.78,26.814Z" style="fill:#7AC36A" />
<path d="M339.2,26.814L339.2,168.68L369.2,168.68L369.2,26.814Z" style="fill:#7AC36A" />
</g>
</svg>
