<?xml version="1.0"?>
<!-- Generated by SVGo and Plotinum VG -->
<svg width="388.4pt" height="199pt" viewBox="0 0 388.4 199"
	xmlns="http://www.w3.org/2000/svg"
	xmlns:xlink="http://www.w3.org/1999/xlink">
<g transform="scale(1, -1) translate(0, -199)">
<path d="M19.2,12L369.2,12L369.2,187L19.2,187Z" style="fill:#FFFFFF" />
<text x="155.93" y="-175.45" transform="scale(1, -1)"
	style="font-family:Times;font-weight:normal;font-style:normal;font-size:12px">Memory, sparse</text>
<text x="70.866" y="-12.186" transform="scale(1, -1)"
	style="font-family:Times;font-weight:normal;font-style:normal;font-size:10px">off</text>
<text x="349.2" y="-12.186" transform="scale(1, -1)"
	style="font-family:Times;font-weight:normal;font-style:normal;font-size:10px">on</text>
<g transform="rotate(90)">
<text x="69.42" y="30.755" transform="scale(1, -1)"
	style="font-family:Times;font-weight:normal;font-style:normal;font-size:12px">bytes/value</text>
</g>
<text x="39.616" y="-22.093" transform="scale(1, -1)"
	style="font-family:Times;font-weight:normal;font-style:normal;font-size:10px">0</text>
<text x="39.616" y="-68.714" transform="scale(1, -1)"
	style="font-family:Times;font-weight:normal;font-style:normal;font-size:10px">5</text>
<text x="34.616" y="-115.33" transform="scale(1, -1)"
	style="font-family:Times;font-weight:normal;font-style:normal;font-size:10px">10</text>
<text x="34.616" y="-161.96" transform="scale(1, -1)"
	style="font-family:Times;font-weight:normal;font-style:normal;font-size:10px">15</text>
<path d="M47.116,26.814L55.116,26.814" style="fill:none;stroke:#000000;stroke-width:0.5" />
<path d="M47.116,73.435L55.116,73.435" style="fill:none;stroke:#000000;stroke-width:0.5" />
<path d="M47.116,120.06L55.116,120.06" style="fill:none;stroke:#000000;stroke-width:0.5" />
<path d="M47.116,166.68L55.116,166.68" style="fill:none;stroke:#000000;stroke-width:0.5" />
<path d="M51.116,36.139L55.116,36.139" style="fill:none;stroke:#000000;stroke-width:0.5" />
<path d="M51.116,45.463L55.116,45.463" style="fill:none;stroke:#000000;stroke-width:0.5" />
<path d="M51.116,54.787L55.116,54.787" style="fill:none;stroke:#000000;stroke-width:0.5" />
<path d="M51.116,64.111L55.116,64.111" style="fill:none;stroke:#000000;stroke-width:0.5" />
<path d="M51.116,82.759L55.116,82.759" style="fill:none;stroke:#000000;stroke-width:0.5" />
<path d="M51.116,92.084L55.116,92.084" style="fill:none;stroke:#000000;stroke-width:0.5" />
<path d="M51.116,101.41L55.116,101.41" style="fill:none;stroke:#000000;stroke-width:0.5" />
<path d="M51.116,110.73L55.116,110.73" style="fill:none;stroke:#000000;stroke-width:0.5" />
<path d="M51.116,129.38L55.116,129.38" style="fill:none;stroke:#000000;stroke-width:0.5" />
<path d="M51.116,138.7L55.116,138.7" style="fill:none;stroke:#000000;stroke-width:0.5" />
<path d="M51.116,148.03L55.116,148.03" style="fill:none;stroke:#000000;stroke-width:0.5" />
<path d="M51.116,157.35L55.116,157.35" style="fill:none;stroke:#000000;stroke-width:0.5" />
<path d="M55.116,26.814L55.116,166.68" style="fill:none;stroke:#000000;stroke-width:0.5" />
<path d="M61.606,26.814L61.606,166.68L91.606,166.68L91.606,26.814Z" style="fill:#F15A60" />
<path d="M339.2,26.814L339.2,26.814L369.2,26.814L369.2,26.814Z" style="fill:#F15A60" />
<path d="M61.606,26.814L61.606,26.814L91.606,26.814L91.606,26.814Z" style="fill:#7AC36A" />
<path d="M339.2,26.814L339.2,166.68L369.2,166.68L369.2,26.814Z" style="fill:#7AC36A" />
</g>
</svg>
