<?xml version="1.0"?>
<!-- Generated by SVGo and Plotinum VG -->
<svg width="380pt" height="190pt" viewBox="0 0 380 190"
	xmlns="http://www.w3.org/2000/svg"
	xmlns:xlink="http://www.w3.org/1999/xlink">
<g transform="scale(1, -1) translate(0, -190)">
<path d="M0,0L380,0L380,190L0,190Z" style="fill:#FFFFFF" />
<text x="165.92" y="-178.45" transform="scale(1, -1)"
	style="font-family:Times;font-weight:normal;font-style:normal;font-size:12px">Or, sparse</text>
<text x="205.67" y="-3.8613" transform="scale(1, -1)"
	style="font-family:Times;font-weight:normal;font-style:normal;font-size:12px">version</text>
<text x="76.666" y="-15.602" transform="scale(1, -1)"
	style="font-family:Times;font-weight:normal;font-style:normal;font-size:10px">v1</text>
<text x="218.33" y="-15.602" transform="scale(1, -1)"
	style="font-family:Times;font-weight:normal;font-style:normal;font-size:10px">v2</text>
<text x="360" y="-15.602" transform="scale(1, -1)"
	style="font-family:Times;font-weight:normal;font-style:normal;font-size:10px">v3</text>
<g transform="rotate(90)">
<text x="89.405" y="11.555" transform="scale(1, -1)"
	style="font-family:Times;font-weight:normal;font-style:normal;font-size:12px">ns/op</text>
</g>
<text x="45.416" y="-25.509" transform="scale(1, -1)"
	style="font-family:Times;font-weight:normal;font-style:normal;font-size:10px">0</text>
<text x="15.416" y="-94.394" transform="scale(1, -1)"
	style="font-family:Times;font-weight:normal;font-style:normal;font-size:10px">3000000</text>
<text x="15.416" y="-163.28" transform="scale(1, -1)"
	style="font-family:Times;font-weight:normal;font-style:normal;font-size:10px">6000000</text>
<path d="M52.916,30.23L60.916,30.23" style="fill:none;stroke:#000000;stroke-width:0.5" />
<path d="M52.916,99.115L60.916,99.115" style="fill:none;stroke:#000000;stroke-width:0.5" />
<path d="M52.916,168L60.916,168" style="fill:none;stroke:#000000;stroke-width:0.5" />
<path d="M56.916,53.192L60.916,53.192" style="fill:none;stroke:#000000;stroke-width:0.5" />
<path d="M56.916,76.154L60.916,76.154" style="fill:none;stroke:#000000;stroke-width:0.5" />
<path d="M56.916,122.08L60.916,122.08" style="fill:none;stroke:#000000;stroke-width:0.5" />
<path d="M56.916,145.04L60.916,145.04" style="fill:none;stroke:#000000;stroke-width:0.5" />
<path d="M60.916,30.23L60.916,174.58" style="fill:none;stroke:#000000;stroke-width:0.5" />
<path d="M66.666,30.23L66.666,140.95L96.666,140.95L96.666,30.23Z" style="fill:#F15A60" />
<path d="M208.33,30.23L208.33,168.3L238.33,168.3L238.33,30.23Z" style="fill:#F15A60" />
<path d="M350,30.23L350,174.58L380,174.58L380,30.23Z" style="fill:#F15A60" />
</g>
</svg>
