<?xml version="1.0"?>
<!-- Generated by SVGo and Plotinum VG -->
<svg width="388.4pt" height="199pt" viewBox="0 0 388.4 199"
	xmlns="http://www.w3.org/2000/svg"
	xmlns:xlink="http://www.w3.org/1999/xlink">
<g transform="scale(1, -1) translate(0, -199)">
<path d="M19.2,12L369.2,12L369.2,187L19.2,187Z" style="fill:#FFFFFF" />
<text x="114.39" y="-175.45" transform="scale(1, -1)"
	style="font-family:Times;font-weight:normal;font-style:normal;font-size:12px">Xor, runs, v1: scalar vs AVX-512</text>
<text x="83.019" y="-12.186" transform="scale(1, -1)"
	style="font-family:Times;font-weight:normal;font-style:normal;font-size:10px">on</text>
<text x="348.46" y="-12.186" transform="scale(1, -1)"
	style="font-family:Times;font-weight:normal;font-style:normal;font-size:10px">off</text>
<g transform="rotate(90)">
<text x="71.874" y="30.755" transform="scale(1, -1)"
	style="font-family:Times;font-weight:normal;font-style:normal;font-size:12px">time per op</text>
</g>
<text x="40.378" y="-22.093" transform="scale(1, -1)"
	style="font-family:Times;font-weight:normal;font-style:normal;font-size:10px">0 ns</text>
<text x="34.616" y="-90.532" transform="scale(1, -1)"
	style="font-family:Times;font-weight:normal;font-style:normal;font-size:10px">10 µs</text>
<text x="34.616" y="-158.97" transform="scale(1, -1)"
	style="font-family:Times;font-weight:normal;font-style:normal;font-size:10px">20 µs</text>
<path d="M59.269,26.814L67.269,26.814" style="fill:none;stroke:#000000;stroke-width:0.5" />
<path d="M59.269,95.254L67.269,95.254" style="fill:none;stroke:#000000;stroke-width:0.5" />
<path d="M59.269,163.69L67.269,163.69" style="fill:none;stroke:#000000;stroke-width:0.5" />
<path d="M63.269,40.502L67.269,40.502" style="fill:none;stroke:#000000;stroke-width:0.5" />
<path d="M63.269,54.19L67.269,54.19" style="fill:none;stroke:#000000;stroke-width:0.5" />
<path d="M63.269,67.878L67.269,67.878" style="fill:none;stroke:#000000;stroke-width:0.5" />
<path d="M63.269,81.566L67.269,81.566" style="fill:none;stroke:#000000;stroke-width:0.5" />
<path d="M63.269,108.94L67.269,108.94" style="fill:none;stroke:#000000;stroke-width:0.5" />
<path d="M63.269,122.63L67.269,122.63" style="fill:none;stroke:#000000;stroke-width:0.5" />
<path d="M63.269,136.32L67.269,136.32" style="fill:none;stroke:#000000;stroke-width:0.5" />
<path d="M63.269,150.01L67.269,150.01" style="fill:none;stroke:#000000;stroke-width:0.5" />
<path d="M67.269,26.814L67.269,171.58" style="fill:none;stroke:#000000;stroke-width:0.5" />
<path d="M73.019,26.814L73.019,129.71L103.02,129.71L103.02,26.814Z" style="fill:#F15A60" />
<path d="M339.2,26.814L339.2,171.58L369.2,171.58L369.2,26.814Z" style="fill:#F15A60" />
</g>
</svg>
