<?xml version="1.0"?>
<!-- Generated by SVGo and Plotinum VG -->
<svg width="388.4pt" height="199pt" viewBox="0 0 388.4 199"
	xmlns="http://www.w3.org/2000/svg"
	xmlns:xlink="http://www.w3.org/1999/xlink">
<g transform="scale(1, -1) translate(0, -199)">
<path d="M19.2,12L369.2,12L369.2,187L19.2,187Z" style="fill:#FFFFFF" />
<text x="113.15" y="-175.45" transform="scale(1, -1)"
	style="font-family:Times;font-weight:normal;font-style:normal;font-size:12px">And, runs, v1: scalar vs AVX-512</text>
<text x="83.019" y="-12.186" transform="scale(1, -1)"
	style="font-family:Times;font-weight:normal;font-style:normal;font-size:10px">on</text>
<text x="348.46" y="-12.186" transform="scale(1, -1)"
	style="font-family:Times;font-weight:normal;font-style:normal;font-size:10px">off</text>
<g transform="rotate(90)">
<text x="70.911" y="30.755" transform="scale(1, -1)"
	style="font-family:Times;font-weight:normal;font-style:normal;font-size:12px">time per op</text>
</g>
<text x="40.378" y="-22.093" transform="scale(1, -1)"
	style="font-family:Times;font-weight:normal;font-style:normal;font-size:10px">0 ns</text>
<text x="34.616" y="-92.024" transform="scale(1, -1)"
	style="font-family:Times;font-weight:normal;font-style:normal;font-size:10px">20 µs</text>
<text x="34.616" y="-161.96" transform="scale(1, -1)"
	style="font-family:Times;font-weight:normal;font-style:normal;font-size:10px">40 µs</text>
<path d="M59.269,26.814L67.269,26.814" style="fill:none;stroke:#000000;stroke-width:0.5" />
<path d="M59.269,96.746L67.269,96.746" style="fill:none;stroke:#000000;stroke-width:0.5" />
<path d="M59.269,166.68L67.269,166.68" style="fill:none;stroke:#000000;stroke-width:0.5" />
<path d="M63.269,61.78L67.269,61.78" style="fill:none;stroke:#000000;stroke-width:0.5" />
<path d="M63.269,131.71L67.269,131.71" style="fill:none;stroke:#000000;stroke-width:0.5" />
<path d="M67.269,26.814L67.269,169.66" style="fill:none;stroke:#000000;stroke-width:0.5" />
<path d="M73.019,26.814L73.019,118.33L103.02,118.33L103.02,26.814Z" style="fill:#F15A60" />
<path d="M339.2,26.814L339.2,169.66L369.2,169.66L369.2,26.814Z" style="fill:#F15A60" />
</g>
</svg>
