<?xml version="1.0"?>
<!-- Generated by SVGo and Plotinum VG -->
<svg width="388.4pt" height="199pt" viewBox="0 0 388.4 199"
	xmlns="http://www.w3.org/2000/svg"
	xmlns:xlink="http://www.w3.org/1999/xlink">
<g transform="scale(1, -1) translate(0, -199)">
<path d="M19.2,12L369.2,12L369.2,187L19.2,187Z" style="fill:#FFFFFF" />
<text x="113.64" y="-175.45" transform="scale(1, -1)"
	style="font-family:Times;font-weight:normal;font-style:normal;font-size:12px">ToArray, zipf: scalar vs AVX-512</text>
<text x="88.019" y="-12.186" transform="scale(1, -1)"
	style="font-family:Times;font-weight:normal;font-style:normal;font-size:10px">off</text>
<text x="349.2" y="-12.186" transform="scale(1, -1)"
	style="font-family:Times;font-weight:normal;font-style:normal;font-size:10px">on</text>
<g transform="rotate(90)">
<text x="71.874" y="30.755" transform="scale(1, -1)"
	style="font-family:Times;font-weight:normal;font-style:normal;font-size:12px">time per op</text>
</g>
<text x="45.378" y="-22.093" transform="scale(1, -1)"
	style="font-family:Times;font-weight:normal;font-style:normal;font-size:10px">0 ns</text>
<text x="39.616" y="-63.014" transform="scale(1, -1)"
	style="font-family:Times;font-weight:normal;font-style:normal;font-size:10px">40 µs</text>
<text x="39.616" y="-103.93" transform="scale(1, -1)"
	style="font-family:Times;font-weight:normal;font-style:normal;font-size:10px">80 µs</text>
<text x="34.616" y="-144.86" transform="scale(1, -1)"
	style="font-family:Times;font-weight:normal;font-style:normal;font-size:10px">120 µs</text>
<path d="M64.269,26.814L72.269,26.814" style="fill:none;stroke:#000000;stroke-width:0.5" />
<path d="M64.269,67.735L72.269,67.735" style="fill:none;stroke:#000000;stroke-width:0.5" />
<path d="M64.269,108.66L72.269,108.66" style="fill:none;stroke:#000000;stroke-width:0.5" />
<path d="M64.269,149.58L72.269,149.58" style="fill:none;stroke:#000000;stroke-width:0.5" />
<path d="M68.269,37.045L72.269,37.045" style="fill:none;stroke:#000000;stroke-width:0.5" />
<path d="M68.269,47.275L72.269,47.275" style="fill:none;stroke:#000000;stroke-width:0.5" />
<path d="M68.269,57.505L72.269,57.505" style="fill:none;stroke:#000000;stroke-width:0.5" />
<path d="M68.269,77.965L72.269,77.965" style="fill:none;stroke:#000000;stroke-width:0.5" />
<path d="M68.269,88.196L72.269,88.196" style="fill:none;stroke:#000000;stroke-width:0.5" />
<path d="M68.269,98.426L72.269,98.426" style="fill:none;stroke:#000000;stroke-width:0.5" />
<path d="M68.269,118.89L72.269,118.89" style="fill:none;stroke:#000000;stroke-width:0.5" />
<path d="M68.269,129.12L72.269,129.12" style="fill:none;stroke:#000000;stroke-width:0.5" />
<path d="M68.269,139.35L72.269,139.35" style="fill:none;stroke:#000000;stroke-width:0.5" />
<path d="M68.269,159.81L72.269,159.81" style="fill:none;stroke:#000000;stroke-width:0.5" />
<path d="M68.269,170.04L72.269,170.04" style="fill:none;stroke:#000000;stroke-width:0.5" />
<path d="M72.269,26.814L72.269,171.58" style="fill:none;stroke:#000000;stroke-width:0.5" />
<path d="M78.759,26.814L78.759,171.58L108.76,171.58L108.76,26.814Z" style="fill:#F15A60" />
<path d="M339.2,26.814L339.2,26.814L369.2,26.814L369.2,26.814Z" style="fill:#F15A60" />
<path d="M78.759,26.814L78.759,26.814L108.76,26.814L108.76,26.814Z" style="fill:#7AC36A" />
<path d="M339.2,26.814L339.2,149.62L369.2,149.62L369.2,26.814Z" style="fill:#7AC36A" />
</g>
</svg>
