<?xml version="1.0"?>
<!-- Generated by SVGo and Plotinum VG -->
<svg width="388.4pt" height="199pt" viewBox="0 0 388.4 199"
	xmlns="http://www.w3.org/2000/svg"
	xmlns:xlink="http://www.w3.org/1999/xlink">
<g transform="scale(1, -1) translate(0, -199)">
<path d="M19.2,12L369.2,12L369.2,187L19.2,187Z" style="fill:#FFFFFF" />
<text x="106.49" y="-175.45" transform="scale(1, -1)"
	style="font-family:Times;font-weight:normal;font-style:normal;font-size:12px">Contains, sparse: scalar vs AVX-512</text>
<text x="87.258" y="-12.186" transform="scale(1, -1)"
	style="font-family:Times;font-weight:normal;font-style:normal;font-size:10px">off</text>
<text x="349.2" y="-12.186" transform="scale(1, -1)"
	style="font-family:Times;font-weight:normal;font-style:normal;font-size:10px">on</text>
<g transform="rotate(90)">
<text x="71.874" y="30.755" transform="scale(1, -1)"
	style="font-family:Times;font-weight:normal;font-style:normal;font-size:12px">time per op</text>
</g>
<text x="44.616" y="-22.093" transform="scale(1, -1)"
	style="font-family:Times;font-weight:normal;font-style:normal;font-size:10px">0 ns</text>
<text x="34.616" y="-83.247" transform="scale(1, -1)"
	style="font-family:Times;font-weight:normal;font-style:normal;font-size:10px">100 ns</text>
<text x="34.616" y="-144.4" transform="scale(1, -1)"
	style="font-family:Times;font-weight:normal;font-style:normal;font-size:10px">200 ns</text>
<path d="M63.508,26.814L71.508,26.814" style="fill:none;stroke:#000000;stroke-width:0.5" />
<path d="M63.508,87.968L71.508,87.968" style="fill:none;stroke:#000000;stroke-width:0.5" />
<path d="M63.508,149.12L71.508,149.12" style="fill:none;stroke:#000000;stroke-width:0.5" />
<path d="M67.508,39.045L71.508,39.045" style="fill:none;stroke:#000000;stroke-width:0.5" />
<path d="M67.508,51.276L71.508,51.276" style="fill:none;stroke:#000000;stroke-width:0.5" />
<path d="M67.508,63.507L71.508,63.507" style="fill:none;stroke:#000000;stroke-width:0.5" />
<path d="M67.508,75.738L71.508,75.738" style="fill:none;stroke:#000000;stroke-width:0.5" />
<path d="M67.508,100.2L71.508,100.2" style="fill:none;stroke:#000000;stroke-width:0.5" />
<path d="M67.508,112.43L71.508,112.43" style="fill:none;stroke:#000000;stroke-width:0.5" />
<path d="M67.508,124.66L71.508,124.66" style="fill:none;stroke:#000000;stroke-width:0.5" />
<path d="M67.508,136.89L71.508,136.89" style="fill:none;stroke:#000000;stroke-width:0.5" />
<path d="M67.508,161.35L71.508,161.35" style="fill:none;stroke:#000000;stroke-width:0.5" />
<path d="M71.508,26.814L71.508,171.58" style="fill:none;stroke:#000000;stroke-width:0.5" />
<path d="M77.997,26.814L77.997,170.15L108,170.15L108,26.814Z" style="fill:#F15A60" />
<path d="M339.2,26.814L339.2,26.814L369.2,26.814L369.2,26.814Z" style="fill:#F15A60" />
<path d="M77.997,26.814L77.997,26.814L108,26.814L108,26.814Z" style="fill:#7AC36A" />
<path d="M339.2,26.814L339.2,171.58L369.2,171.58L369.2,26.814Z" style="fill:#7AC36A" />
</g>
</svg>
