<?xml version="1.0"?>
<!-- Generated by SVGo and Plotinum VG -->
<svg width="388.4pt" height="199pt" viewBox="0 0 388.4 199"
	xmlns="http://www.w3.org/2000/svg"
	xmlns:xlink="http://www.w3.org/1999/xlink">
<g transform="scale(1, -1) translate(0, -199)">
<path d="M19.2,12L369.2,12L369.2,187L19.2,187Z" style="fill:#FFFFFF" />
<text x="161.96" y="-175.45" transform="scale(1, -1)"
	style="font-family:Times;font-weight:normal;font-style:normal;font-size:12px">ToBytes, zipf</text>
<text x="88.019" y="-12.186" transform="scale(1, -1)"
	style="font-family:Times;font-weight:normal;font-style:normal;font-size:10px">raw</text>
<text x="349.2" y="-12.186" transform="scale(1, -1)"
	style="font-family:Times;font-weight:normal;font-style:normal;font-size:10px">v3</text>
<g transform="rotate(90)">
<text x="71.874" y="30.755" transform="scale(1, -1)"
	style="font-family:Times;font-weight:normal;font-style:normal;font-size:12px">time per op</text>
</g>
<text x="45.378" y="-22.093" transform="scale(1, -1)"
	style="font-family:Times;font-weight:normal;font-style:normal;font-size:10px">0 ns</text>
<text x="34.616" y="-67.759" transform="scale(1, -1)"
	style="font-family:Times;font-weight:normal;font-style:normal;font-size:10px">100 µs</text>
<text x="34.616" y="-113.43" transform="scale(1, -1)"
	style="font-family:Times;font-weight:normal;font-style:normal;font-size:10px">200 µs</text>
<text x="34.616" y="-159.09" transform="scale(1, -1)"
	style="font-family:Times;font-weight:normal;font-style:normal;font-size:10px">300 µs</text>
<path d="M64.269,26.814L72.269,26.814" style="fill:none;stroke:#000000;stroke-width:0.5" />
<path d="M64.269,72.481L72.269,72.481" style="fill:none;stroke:#000000;stroke-width:0.5" />
<path d="M64.269,118.15L72.269,118.15" style="fill:none;stroke:#000000;stroke-width:0.5" />
<path d="M64.269,163.81L72.269,163.81" style="fill:none;stroke:#000000;stroke-width:0.5" />
<path d="M68.269,35.948L72.269,35.948" style="fill:none;stroke:#000000;stroke-width:0.5" />
<path d="M68.269,45.081L72.269,45.081" style="fill:none;stroke:#000000;stroke-width:0.5" />
<path d="M68.269,54.214L72.269,54.214" style="fill:none;stroke:#000000;stroke-width:0.5" />
<path d="M68.269,63.348L72.269,63.348" style="fill:none;stroke:#000000;stroke-width:0.5" />
<path d="M68.269,81.614L72.269,81.614" style="fill:none;stroke:#000000;stroke-width:0.5" />
<path d="M68.269,90.747L72.269,90.747" style="fill:none;stroke:#000000;stroke-width:0.5" />
<path d="M68.269,99.881L72.269,99.881" style="fill:none;stroke:#000000;stroke-width:0.5" />
<path d="M68.269,109.01L72.269,109.01" style="fill:none;stroke:#000000;stroke-width:0.5" />
<path d="M68.269,127.28L72.269,127.28" style="fill:none;stroke:#000000;stroke-width:0.5" />
<path d="M68.269,136.41L72.269,136.41" style="fill:none;stroke:#000000;stroke-width:0.5" />
<path d="M68.269,145.55L72.269,145.55" style="fill:none;stroke:#000000;stroke-width:0.5" />
<path d="M68.269,154.68L72.269,154.68" style="fill:none;stroke:#000000;stroke-width:0.5" />
<path d="M72.269,26.814L72.269,171.58" style="fill:none;stroke:#000000;stroke-width:0.5" />
<path d="M80.514,26.814L80.514,171.58L110.51,171.58L110.51,26.814Z" style="fill:#F15A60" />
<path d="M339.2,26.814L339.2,91.362L369.2,91.362L369.2,26.814Z" style="fill:#F15A60" />
</g>
</svg>
