<?xml version="1.0"?>
<!-- Generated by SVGo and Plotinum VG -->
<svg width="388.4pt" height="199pt" viewBox="0 0 388.4 199"
	xmlns="http://www.w3.org/2000/svg"
	xmlns:xlink="http://www.w3.org/1999/xlink">
<g transform="scale(1, -1) translate(0, -199)">
<path d="M19.2,12L369.2,12L369.2,187L19.2,187Z" style="fill:#FFFFFF" />
<text x="161.96" y="-175.45" transform="scale(1, -1)"
	style="font-family:Times;font-weight:normal;font-style:normal;font-size:12px">ToBytes, zipf</text>
<text x="83.019" y="-12.186" transform="scale(1, -1)"
	style="font-family:Times;font-weight:normal;font-style:normal;font-size:10px">raw</text>
<text x="339.76" y="-12.186" transform="scale(1, -1)"
	style="font-family:Times;font-weight:normal;font-style:normal;font-size:10px">roaring</text>
<g transform="rotate(90)">
<text x="71.874" y="30.755" transform="scale(1, -1)"
	style="font-family:Times;font-weight:normal;font-style:normal;font-size:12px">time per op</text>
</g>
<text x="40.378" y="-22.093" transform="scale(1, -1)"
	style="font-family:Times;font-weight:normal;font-style:normal;font-size:10px">0 ns</text>
<text x="34.616" y="-85.613" transform="scale(1, -1)"
	style="font-family:Times;font-weight:normal;font-style:normal;font-size:10px">40 µs</text>
<text x="34.616" y="-149.13" transform="scale(1, -1)"
	style="font-family:Times;font-weight:normal;font-style:normal;font-size:10px">80 µs</text>
<path d="M59.269,26.814L67.269,26.814" style="fill:none;stroke:#000000;stroke-width:0.5" />
<path d="M59.269,90.335L67.269,90.335" style="fill:none;stroke:#000000;stroke-width:0.5" />
<path d="M59.269,153.86L67.269,153.86" style="fill:none;stroke:#000000;stroke-width:0.5" />
<path d="M63.269,42.695L67.269,42.695" style="fill:none;stroke:#000000;stroke-width:0.5" />
<path d="M63.269,58.575L67.269,58.575" style="fill:none;stroke:#000000;stroke-width:0.5" />
<path d="M63.269,74.455L67.269,74.455" style="fill:none;stroke:#000000;stroke-width:0.5" />
<path d="M63.269,106.22L67.269,106.22" style="fill:none;stroke:#000000;stroke-width:0.5" />
<path d="M63.269,122.1L67.269,122.1" style="fill:none;stroke:#000000;stroke-width:0.5" />
<path d="M63.269,137.98L67.269,137.98" style="fill:none;stroke:#000000;stroke-width:0.5" />
<path d="M63.269,169.74L67.269,169.74" style="fill:none;stroke:#000000;stroke-width:0.5" />
<path d="M67.269,26.814L67.269,171.58" style="fill:none;stroke:#000000;stroke-width:0.5" />
<path d="M75.514,26.814L75.514,171.58L105.51,171.58L105.51,26.814Z" style="fill:#F15A60" />
<path d="M339.2,26.814L339.2,26.814L369.2,26.814L369.2,26.814Z" style="fill:#F15A60" />
<path d="M75.514,26.814L75.514,26.814L105.51,26.814L105.51,26.814Z" style="fill:#7AC36A" />
<path d="M339.2,26.814L339.2,41.543L369.2,41.543L369.2,26.814Z" style="fill:#7AC36A" />
</g>
</svg>
